PathFileType	4	(X/Y/Z)	/Users/itak/Documents/Research/Walk-IL/dataset/trc/00230_00009.trc
DataRate	CameraRate	NumFrames	NumMarkers	Units	OrigDataRate	OrigDataStartFrame	OrigNumFrames
100.000000	100.000000	4	53	mm	100.000000	498	798
Frame#	Time	RPSI			LPSI			L3			STRN			T10			C7			CLAV			RBAK			LBAK			LSHO			LUPA			LAEL			LAOL			LWTS			LWPS			LFRA			LIFD			LHPS			LHTS			RSHO			RUPA			RAEL			RAOL			RWTS			RWPS			RFRA			RIFD			RHTS			RHPS			RBHD			LFHD			RFHD			LBHD			LHIP			RHIP			RASI			LASI			LKNE			LTHI			LANK			LTIP			LTOE			LMT1			LMT5			LHEE			RKNE			RTHI			RANK			RTIP			RTOE			RMT1			RMT5			RHEE			
		X1	Y1	Z1	X2	Y2	Z2	X3	Y3	Z3	X4	Y4	Z4	X5	Y5	Z5	X6	Y6	Z6	X7	Y7	Z7	X8	Y8	Z8	X9	Y9	Z9	X10	Y10	Z10	X11	Y11	Z11	X12	Y12	Z12	X13	Y13	Z13	X14	Y14	Z14	X15	Y15	Z15	X16	Y16	Z16	X17	Y17	Z17	X18	Y18	Z18	X19	Y19	Z19	X20	Y20	Z20	X21	Y21	Z21	X22	Y22	Z22	X23	Y23	Z23	X24	Y24	Z24	X25	Y25	Z25	X26	Y26	Z26	X27	Y27	Z27	X28	Y28	Z28	X29	Y29	Z29	X30	Y30	Z30	X31	Y31	Z31	X32	Y32	Z32	X33	Y33	Z33	X34	Y34	Z34	X35	Y35	Z35	X36	Y36	Z36	X37	Y37	Z37	X38	Y38	Z38	X39	Y39	Z39	X40	Y40	Z40	X41	Y41	Z41	X42	Y42	Z42	X43	Y43	Z43	X44	Y44	Z44	X45	Y45	Z45	X46	Y46	Z46	X47	Y47	Z47	X48	Y48	Z48	X49	Y49	Z49	X50	Y50	Z50	X51	Y51	Z51	X52	Y52	Z52	X53	Y53	Z53	

499	4.98	-5.834096431732178	1016.451965332031	-471.6972045898438	67.98696899414062	1018.078247070312	-378.7796020507812	40.28429794311523	1106.335693359375	-418.4848327636719	-150.1797180175781	1279.42822265625	-251.3428649902344	36.46123123168945	1232.806640625	-429.3920288085938	-12.85833740234375	1491.0830078125	-368.1647644042969	-131.5625	1397.186401367188	-263.8196105957031	-3.73111891746521	1359.3701171875	-483.6957397460938	78.01351928710938	1448.397827148438	-305.8240356445312	53.1010627746582	1442.140258789062	-203.5588073730469	132.5918273925781	1322.50341796875	-182.7094116210938	161.4727630615234	1116.415161132812	-178.0543060302734	156.7000274658203	1103.799438476562	-264.1592102050781	91.32724761962891	873.4085693359375	-137.5970153808594	174.2177429199219	864.3833618164062	-126.0642623901367	172.9418182373047	1009.167663574219	-159.6116943359375	121.8196716308594	679.5441284179688	-151.3065948486328	173.8258666992188	774.63525390625	-122.8312759399414	107.010986328125	768.6368408203125	-109.9972915649414	-168.7389678955078	1453.645263671875	-455.3328857421875	-198.7823486328125	1391.88232421875	-520.8414916992188	-215.4392852783203	1118.347534179688	-588.2135620117188	-130.8242034912109	1105.007690429688	-547.4291381835938	-300.8064270019531	910.0470581054688	-464.9923706054688	-306.5583190917969	894.5863037109375	-548.0265502929688	-248.0482788085938	1050.6875	-581.2113647460938	-326.3695373535156	719.1975708007812	-447.07568359375	-351.7664794921875	794.2783813476562	-447.9801635742188	-346.0780639648438	791.2564697265625	-520.2469482421875	-115.5601654052734	1656.92333984375	-343.9186096191406	-137.0916137695312	1643.59814453125	-117.8440475463867	-223.1129913330078	1645.758178710938	-169.1504974365234	-24.02431488037109	1648.391845703125	-238.0015411376953	63.20016860961914	960.8765258789062	-205.6588287353516	-146.2616882324219	978.3507690429688	-504.5261840820312	-205.1329040527344	1020.792358398438	-417.9029235839844	-44.08867645263672	1007.14404296875	-189.6001281738281	-121.9275665283203	506.3186340332031	-158.5341339111328	-55.71652603149414	637.8373413085938	-157.7548980712891	-145.9318542480469	31.98521995544434	-231.6180114746094	-127.6602554321289	273.19189453125	-188.0514373779297	-330.7807006835938	44.12894058227539	-105.5018997192383	-315.9602966308594	36.08750915527344	-183.0257110595703	-218.2926635742188	37.96410751342773	-123.7450561523438	-147.9512786865234	38.16973876953125	-311.9328002929688	-102.8519973754883	498.4879150390625	-525.9097900390625	-177.0682830810547	755.8071899414062	-494.9139404296875	198.1652069091797	112.417594909668	-691.506591796875	-51.67813491821289	389.9886474609375	-552.202880859375	34.4355354309082	38.8095703125	-602.5862426757812	89.04962158203125	52.38311004638672	-571.3204956054688	106.0157241821289	50.64339065551758	-690.0816040039062	262.0623779296875	151.2063598632812	-649.3306884765625	
500	4.99	-11.87137413024902	1016.925537109375	-466.1891784667969	62.41042327880859	1018.834411621094	-373.6634826660156	34.70391082763672	1107.341674804688	-413.0947570800781	-154.3297729492188	1280.726196289062	-244.79541015625	30.92406463623047	1233.55615234375	-424.2866821289062	-17.67106628417969	1491.973754882812	-363.1919860839844	-135.6654663085938	1398.434692382812	-257.6527404785156	-9.822850227355957	1360.165893554688	-478.6113586425781	73.69808959960938	1449.32177734375	-301.5247192382812	49.39814376831055	1443.374267578125	-199.0279235839844	128.7337341308594	1323.68017578125	-178.1194152832031	156.5940399169922	1117.362426757812	-172.2529602050781	151.6804656982422	1104.260620117188	-258.2698364257812	83.78555297851562	875.5399780273438	-129.5847473144531	166.6445770263672	865.645751953125	-118.0309982299805	167.0191802978516	1010.1337890625	-152.9310760498047	111.8415222167969	681.2756958007812	-141.5275115966797	165.1338348388672	775.9359741210938	-113.9976043701172	98.17791748046875	770.8743286132812	-101.029899597168	-174.5224761962891	1454.581176757812	-448.7932434082031	-205.2411956787109	1392.755493164062	-513.9396362304688	-222.0325164794922	1119.085815429688	-580.8555908203125	-136.7749633789062	1106.15478515625	-541.2124633789062	-304.5242614746094	909.99169921875	-457.1084594726562	-311.2894592285156	894.7035522460938	-540.0758666992188	-254.1070709228516	1051.258911132812	-573.6082763671875	-328.2471923828125	718.889892578125	-439.2521362304688	-354.3335571289062	793.8237915039062	-439.6802673339844	-349.6548461914062	790.9512939453125	-512.0103149414062	-119.9562301635742	1658.068603515625	-338.0578308105469	-139.1322174072266	1644.757080078125	-111.721549987793	-225.713134765625	1647.0595703125	-162.1937713623047	-27.36262893676758	1649.387573242188	-233.0492706298828	59.03347015380859	961.72216796875	-200.5088958740234	-152.2322692871094	979.2515258789062	-498.0368347167969	-210.6005249023438	1021.951416015625	-410.7893981933594	-48.1817626953125	1007.991455078125	-183.5878601074219	-124.4072418212891	505.9620971679688	-155.4606170654297	-58.65471649169922	637.81494140625	-154.1374664306641	-146.0663757324219	32.13102340698242	-231.62451171875	-129.1963348388672	273.0359802246094	-186.7274932861328	-331.1047058105469	43.80965423583984	-105.7190780639648	-316.1811218261719	35.78033828735352	-183.1611480712891	-218.5009918212891	38.15847396850586	-123.7587738037109	-147.9848785400391	38.17778015136719	-311.9291381835938	-117.9686508178711	497.6364440917969	-517.4082641601562	-186.1575775146484	756.6126708984375	-486.7883911132812	190.0026397705078	122.684700012207	-691.7553100585938	-66.23385620117188	389.8065795898438	-544.5881958007812	32.315673828125	38.46061325073242	-601.970947265625	86.59667205810547	54.53489685058594	-570.9066772460938	100.8296432495117	56.85847091674805	-689.8234252929688	252.9516448974609	163.2163238525391	-650.087890625	
501	5	-17.74964904785156	1017.371337890625	-460.8037719726562	56.9833869934082	1019.647705078125	-368.6433410644531	29.21179962158203	1108.284545898438	-407.7718811035156	-158.3895568847656	1281.986694335938	-238.3264617919922	25.51603507995605	1234.287719726562	-419.2214660644531	-22.40185546875	1492.853881835938	-358.2676391601562	-139.6681671142578	1399.644409179688	-251.5484313964844	-15.75465488433838	1360.916381835938	-473.5286560058594	69.44153594970703	1450.235961914062	-297.2690734863281	45.78517150878906	1444.590942382812	-194.5534973144531	125.0099716186523	1324.862548828125	-173.6120300292969	151.953125	1118.325439453125	-166.4856719970703	146.8799896240234	1104.714233398438	-252.4101409912109	76.28837585449219	877.8655395507812	-121.4627914428711	159.092529296875	866.95166015625	-109.893196105957	161.2640533447266	1011.122802734375	-146.2330322265625	101.3017959594727	683.2245483398438	-131.2666320800781	156.2179565429688	777.3031616210938	-104.9316864013672	89.13794708251953	773.4107055664062	-91.73394012451172	-180.1632232666016	1455.460693359375	-442.3360595703125	-211.5474700927734	1393.575317382812	-507.1049194335938	-228.7933654785156	1119.783935546875	-573.4859008789062	-142.8437194824219	1107.2041015625	-535.1572265625	-308.1762084960938	909.8599853515625	-449.1827697753906	-316.2185363769531	894.8269653320312	-532.0709838867188	-260.3531799316406	1051.813598632812	-565.9578857421875	-330.0586853027344	718.5379028320312	-431.5013427734375	-356.8150634765625	793.30322265625	-431.3004150390625	-353.3973999023438	790.6466064453125	-503.6972045898438	-124.3202590942383	1659.17822265625	-332.2993774414062	-141.1255035400391	1645.952514648438	-105.7386322021484	-228.2785797119141	1648.366577148438	-155.3617095947266	-30.67960548400879	1650.39013671875	-228.2117614746094	54.9937744140625	962.574462890625	-195.4379119873047	-157.9796447753906	980.1395874023438	-491.7135925292969	-215.9586486816406	1023.062866210938	-403.8410339355469	-52.14086532592773	1008.775146484375	-177.7107543945312	-126.6167526245117	505.5989990234375	-152.5773010253906	-61.33433151245117	637.7879028320312	-150.6825103759766	-146.18701171875	32.23788070678711	-231.6326293945312	-130.5356903076172	272.864013671875	-185.4502563476562	-331.3609924316406	43.61719131469727	-105.8893127441406	-316.3582458496094	35.56572341918945	-183.2800903320312	-218.6628570556641	38.31661987304688	-123.783332824707	-148.0063629150391	38.17288208007812	-311.9383239746094	-133.2243957519531	496.813232421875	-508.5781555175781	-195.1758728027344	757.4308471679688	-478.7622680664062	180.7351531982422	133.3058166503906	-691.5496826171875	-81.09987640380859	389.6015319824219	-536.3550415039062	29.26106643676758	38.14150238037109	-600.7073974609375	83.49887084960938	57.17410278320312	-570.1605224609375	94.59696960449219	63.74784851074219	-689.05712890625	242.8797760009766	175.3068542480469	-650.602294921875	
502	5.01	-23.51505470275879	1017.789855957031	-455.5650634765625	51.68843841552734	1020.490417480469	-363.7685852050781	23.79845237731934	1109.141723632812	-402.5809020996094	-162.3624725341797	1283.192138671875	-231.9603881835938	20.19553565979004	1234.991821289062	-414.2109985351562	-27.0554256439209	1493.716796875	-353.3919677734375	-143.5807495117188	1400.799682617188	-245.5205078125	-21.5292911529541	1361.62060546875	-468.4585876464844	65.24024963378906	1451.131713867188	-293.0470275878906	42.25288391113281	1445.769287109375	-190.1380920410156	121.3940124511719	1326.025268554688	-169.1798858642578	147.5272064208984	1119.286499023438	-160.7714233398438	142.2826538085938	1105.140380859375	-246.5947113037109	68.87201690673828	880.380859375	-113.2207412719727	151.5849761962891	868.3051147460938	-101.6751937866211	155.6705780029297	1012.1259765625	-139.5340270996094	90.30510711669922	685.4054565429688	-120.5205535888672	147.1336059570312	778.7567138671875	-95.64619445800781	79.97760772705078	776.2482299804688	-82.11489105224609	-185.6641387939453	1456.283813476562	-435.97412109375	-217.6938629150391	1394.340942382812	-500.3559265136719	-235.6504516601562	1120.43603515625	-566.1174926757812	-148.9935913085938	1108.146606445312	-529.2257690429688	-311.7905883789062	909.6779174804688	-441.2239990234375	-321.3372192382812	894.9721069335938	-524.0143432617188	-266.738525390625	1052.343872070312	-558.272705078125	-331.9029235839844	718.1731567382812	-423.8398132324219	-359.279541015625	792.7498168945312	-422.86767578125	-357.3376159667969	790.373291015625	-495.3221740722656	-128.6589202880859	1660.2431640625	-326.6397094726562	-143.0878295898438	1647.164306640625	-99.90312957763672	-230.8186950683594	1649.666870117188	-148.65087890625	-33.98135375976562	1651.383911132812	-223.4882507324219	51.0985221862793	963.3959350585938	-190.4930725097656	-163.5579986572266	981.0215454101562	-485.5444641113281	-221.2481384277344	1024.112182617188	-397.0359191894531	-55.93034362792969	1009.4970703125	-171.9816741943359	-128.6273040771484	505.2438354492188	-149.8409576416016	-63.81067657470703	637.7608642578125	-147.3712768554688	-146.30029296875	32.3167839050293	-231.6344909667969	-131.7424468994141	272.6835021972656	-184.1833190917969	-331.5740051269531	43.489990234375	-106.0096054077148	-316.5033264160156	35.40953826904297	-183.3838653564453	-218.79052734375	38.43634033203125	-123.810920715332	-148.0265350341797	38.16468811035156	-311.9489135742188	-148.5229034423828	496.0676879882812	-499.3736877441406	-204.1158294677734	758.2647705078125	-470.7698059082031	170.3805694580078	143.9690551757812	-690.8033447265625	-96.13771057128906	389.4130859375	-527.5205688476562	25.22835159301758	37.98988723754883	-598.6138916015625	79.63907623291016	60.31857681274414	-568.927001953125	87.24411010742188	71.03164672851562	-687.5924072265625	231.8651885986328	187.2069854736328	-650.7861328125	
